<svg width="15" height="14" viewBox="0 0 15 14" fill="none" xmlns="http://www.w3.org/2000/svg">
<path fill-rule="evenodd" clip-rule="evenodd" d="M1.20776 13.79C1.20965 13.79 1.21155 13.79 1.21344 13.79H1.20178C1.20377 13.79 1.20577 13.79 1.20776 13.79ZM0.385109 13.4517C0.616985 13.6719 0.906469 13.7885 1.20776 13.79C1.50895 13.7886 1.79831 13.6835 2.03011 13.4517L7.74678 7.73499C8.20178 7.27999 8.20178 6.54499 7.74678 6.08999L1.99511 0.33832C1.54011 -0.11668 0.793442 -0.11668 0.338442 0.33832C-0.116558 0.79332 -0.116558 1.53999 0.338442 1.99499L5.27344 6.91832L0.385109 11.8067C-0.0698909 12.2617 -0.0698909 12.9967 0.385109 13.4517ZM7.83435 13.7897C7.83624 13.7897 7.83813 13.7897 7.84003 13.7897H7.82836C7.83035 13.7897 7.83235 13.7897 7.83435 13.7897ZM7.01169 13.4514C7.24357 13.6717 7.53305 13.7882 7.83435 13.7897C8.13553 13.7883 8.42489 13.6832 8.65669 13.4514L14.3617 7.74638C14.8167 7.29138 14.8167 6.55638 14.3617 6.10138L8.61003 0.349711C8.15503 -0.105289 7.42003 -0.105289 6.96503 0.349711C6.51003 0.804711 6.51003 1.53971 6.96503 1.99471L11.8884 6.91804L7.01169 11.8064C6.55669 12.2614 6.55669 12.9964 7.01169 13.4514Z" fill="#C3C3C3"/>
</svg>
