<svg width="32" height="33" viewBox="0 0 32 33" fill="none" xmlns="http://www.w3.org/2000/svg">
<path d="M7.53568 2.71484C4.83837 2.71484 2.6665 4.88671 2.6665 7.58402V24.5124C2.6665 27.2097 4.83837 29.3815 7.53568 29.3815H16.7107V18.9565H13.954V15.2032H16.7107V11.9965C16.7107 9.47719 18.3395 7.16402 22.0915 7.16402C23.6107 7.16402 24.734 7.30986 24.734 7.30986L24.6457 10.8149C24.6457 10.8149 23.5 10.804 22.2498 10.804C20.8968 10.804 20.6798 11.4275 20.6798 12.4624V15.2032H24.7532L24.5757 18.9566H20.6798V29.3816H24.464C27.1613 29.3816 29.3332 27.2097 29.3332 24.5124V7.58404C29.3332 4.88674 27.1613 2.71487 24.464 2.71487H7.53565L7.53568 2.71484Z" fill="#8E9091"/>
</svg>
