<svg width="148" height="26" viewBox="0 0 148 26" fill="none" xmlns="http://www.w3.org/2000/svg">
<g clip-path="url(#clip0_4233_24185)">
<path d="M38.098 18.0324C35.2242 18.0324 33.0465 15.8547 33.0465 13.0038C33.0465 10.1528 35.2242 7.99268 38.098 7.99268C40.4893 7.99268 42.3463 9.4445 42.8815 11.6398H40.9182C40.4181 10.5422 39.3477 9.86897 38.098 9.86897C36.3667 9.86897 35.0634 11.232 35.0634 13.0029C35.0634 14.7737 36.3843 16.1544 38.098 16.1544C39.3653 16.1544 40.3821 15.4812 40.9006 14.3132H42.8991C42.3814 16.5437 40.4717 18.0315 38.098 18.0315V18.0324Z" fill="white"/>
<path d="M49.3075 18.0324C46.345 18.0324 44.1497 15.8898 44.1497 13.0038C44.1497 10.1177 46.345 7.99268 49.3075 7.99268C52.27 7.99268 54.4478 10.1353 54.4478 13.0038C54.4478 15.8723 52.2525 18.0324 49.3075 18.0324ZM49.3075 16.1552C51.1284 16.1552 52.4309 14.8449 52.4309 13.0038C52.4309 11.1626 51.1276 9.86985 49.3075 9.86985C47.4874 9.86985 46.1666 11.1802 46.1666 13.0038C46.1666 14.8273 47.4699 16.1552 49.3075 16.1552Z" fill="white"/>
<path d="M64.0551 4.80615H66.036V17.8023H64.5367L64.2687 16.7046C63.4118 17.5369 62.2166 18.0325 60.8781 18.0325C57.9508 18.0325 55.8627 15.8724 55.8627 13.0214C55.8627 10.1705 57.9508 7.99278 60.8781 7.99278C62.1094 7.99278 63.1982 8.39968 64.0551 9.10802V4.80615ZM61.0205 16.1553C62.8414 16.1553 64.1799 14.7923 64.1799 13.0039C64.1799 11.2154 62.8414 9.86996 61.0205 9.86996C59.1996 9.86996 57.8796 11.2154 57.8796 13.0039C57.8796 14.7923 59.218 16.1553 61.0205 16.1553Z" fill="white"/>
<path d="M68.829 6.75451V4.71826H70.8635V6.75451H68.829ZM68.865 17.7847V8.22391H70.8459V17.7847H68.865Z" fill="white"/>
<path d="M78.7447 8.01123C81.0112 8.01123 82.4217 9.67573 82.4217 12.0301V17.7847H80.4409V12.4379C80.4409 10.7031 79.6736 9.78207 78.228 9.78207C76.7111 9.78207 75.6398 10.9861 75.6398 12.6681V17.7847H73.6589V8.22391H75.0334L75.4263 9.56939C76.1399 8.59565 77.336 8.01123 78.7456 8.01123H78.7447Z" fill="white"/>
<path d="M92.981 8.224H94.2843V16.5456C94.2843 19.5908 92.4633 21.4504 89.4832 21.4504C87.0023 21.4504 85.2534 20.1752 84.7718 18.0862H86.7351C87.1104 19.1311 88.2529 19.7147 89.4665 19.7147C91.1267 19.7147 92.3579 18.617 92.3579 16.811V16.3681C91.5186 17.094 90.4122 17.5194 89.1625 17.5194C86.4671 17.5194 84.3975 15.448 84.3975 12.757C84.3975 10.066 86.468 7.99463 89.1625 7.99463C90.573 7.99463 91.8042 8.56147 92.6787 9.46403L92.9827 8.22488L92.981 8.224ZM89.376 15.6958C91.0897 15.6958 92.3385 14.4567 92.3385 12.757C92.3385 11.0573 91.1073 9.83577 89.376 9.83577C87.6447 9.83577 86.4126 11.0925 86.4126 12.757C86.4126 14.4215 87.6623 15.6958 89.376 15.6958Z" fill="white"/>
<path d="M101.867 8.04639C104.187 8.04639 105.633 9.69331 105.633 12.1189V17.7847H104.758V12.2964C104.758 10.1187 103.616 8.84348 101.67 8.84348C99.7242 8.84348 98.2609 10.4192 98.2609 12.3316V17.7847H97.3865V8.22391H98.0289L98.2073 10.1714C98.9033 8.87864 100.278 8.04639 101.866 8.04639H101.867Z" fill="white"/>
<path d="M108.695 6.2577V5.03613H109.802V6.2577H108.695ZM108.82 17.7844V8.22364H109.694V17.7844H108.82Z" fill="white"/>
<path d="M117.536 8.04639C119.856 8.04639 121.302 9.69331 121.302 12.1189V17.7847H120.428V12.2964C120.428 10.1187 119.285 8.84348 117.339 8.84348C115.394 8.84348 113.93 10.4192 113.93 12.3316V17.7847H113.056V8.22391H113.698L113.877 10.1714C114.573 8.87864 115.947 8.04639 117.535 8.04639H117.536Z" fill="white"/>
<path d="M124.597 6.2577V5.03613H125.686V6.2577H124.597ZM122.062 21.1837V20.3866H122.473C123.883 20.3866 124.704 19.572 124.704 18.1737V8.22364H125.578V18.2274C125.578 20.0333 124.401 21.1846 122.58 21.1846H122.062V21.1837Z" fill="white"/>
<path d="M137.359 8.22401H138.073V17.7848H137.341L137.234 15.7134C136.396 17.094 134.897 17.9799 133.04 17.9799C130.219 17.9799 128.095 15.8373 128.095 13.0048C128.095 10.1724 130.219 8.04736 133.04 8.04736C134.896 8.04736 136.395 8.93234 137.234 10.3139L137.359 8.22489V8.22401ZM133.093 17.1476C135.467 17.1476 137.198 15.3944 137.198 13.0048C137.198 10.6153 135.467 8.87961 133.093 8.87961C130.72 8.87961 128.988 10.668 128.988 13.0048C128.988 15.3416 130.756 17.1476 133.093 17.1476Z" fill="white"/>
<path d="M144.305 17.9798C142.092 17.9798 140.7 16.8821 140.575 15.0937H141.432C141.556 16.4216 142.663 17.1827 144.323 17.1827C145.983 17.1827 147.125 16.4216 147.125 15.2176C147.125 13.7306 145.679 13.4644 144.18 13.2165C142.52 12.9336 140.753 12.6145 140.753 10.6495C140.753 9.09131 142.164 8.04639 144.251 8.04639C146.338 8.04639 147.677 9.10889 147.749 10.8085H146.91C146.839 9.55182 145.857 8.82591 144.233 8.82591C142.609 8.82591 141.609 9.55182 141.609 10.6319C141.609 11.9247 142.912 12.1365 144.393 12.3852C146.071 12.6681 147.998 12.9872 147.998 15.1825C147.998 16.8821 146.516 17.9798 144.304 17.9798H144.305Z" fill="white"/>
<path d="M12.8274 25.9822C19.9117 25.9822 25.6548 20.1699 25.6548 13.0001C25.6548 5.83033 19.9117 0.0180664 12.8274 0.0180664C5.74301 0.0180664 0 5.83033 0 13.0001C0 20.1699 5.74301 25.9822 12.8274 25.9822Z" fill="white"/>
<path d="M4.65156 13.0404C4.61289 14.3648 4.84315 15.6892 5.26674 16.9732C5.65167 18.0638 6.38285 18.9989 7.34605 19.6607C8.46216 20.362 9.74349 20.6344 11.0802 20.6344H19.2797V16.7289H11.067C9.06152 16.7289 8.09833 15.35 8.09833 13.0484V13.051C8.09833 10.7493 9.0624 9.37573 11.067 9.37573H19.2788V5.47021H11.0793C9.78304 5.47021 8.46216 5.74265 7.34517 6.44396C6.38285 7.10572 5.65167 8.03991 5.26586 9.13141C4.84227 10.4163 4.61201 11.7398 4.65068 13.0642" fill="url(#paint0_linear_4233_24185)"/>
<path fill-rule="evenodd" clip-rule="evenodd" d="M9.63196 12.2417L13.4812 12.9861C13.4812 12.9861 10.6576 15.9548 9.63196 12.2417Z" fill="#414141"/>
<path fill-rule="evenodd" clip-rule="evenodd" d="M18.6593 12.2549L14.9269 13.0379C14.9269 13.0379 18.1592 15.975 18.6593 12.2549Z" fill="#414141"/>
</g>
<defs>
<linearGradient id="paint0_linear_4233_24185" x1="4.64717" y1="13.0527" x2="19.2788" y2="13.0527" gradientUnits="userSpaceOnUse">
<stop stop-color="#F16222"/>
<stop offset="0.26" stop-color="#F37421"/>
<stop offset="0.71" stop-color="#F68D1E"/>
<stop offset="1" stop-color="#F7981D"/>
</linearGradient>
<clipPath id="clip0_4233_24185">
<rect width="148" height="25.9641" fill="white" transform="translate(0 0.0180664)"/>
</clipPath>
</defs>
</svg>
