<svg width="28" height="28" viewBox="0 0 28 28" fill="none" xmlns="http://www.w3.org/2000/svg">
<path d="M27.2473 8.59875C27.2323 7.47721 27.0224 6.36681 26.6268 5.31724C26.2838 4.43194 25.7599 3.62792 25.0885 2.95656C24.4171 2.2852 23.6131 1.76127 22.7278 1.41824C21.6917 1.02931 20.5972 0.819007 19.4907 0.796289C18.0662 0.732614 17.6145 0.714844 13.9984 0.714844C10.3822 0.714844 9.91869 0.714844 8.5045 0.796289C7.39856 0.819174 6.30451 1.02947 5.2689 1.41824C4.38346 1.76103 3.57931 2.28488 2.90793 2.95627C2.23654 3.62765 1.71269 4.4318 1.36989 5.31724C0.980188 6.35253 0.770344 7.44683 0.74943 8.55284C0.685755 9.97888 0.666504 10.4305 0.666504 14.0467C0.666504 17.6629 0.666504 18.1249 0.74943 19.5406C0.771642 20.6482 0.980438 21.7411 1.36989 22.7791C1.71326 23.6643 2.2375 24.4681 2.90912 25.1392C3.58073 25.8103 4.38495 26.3339 5.27038 26.6766C6.30316 27.0812 7.3974 27.3066 8.50598 27.343C9.93202 27.4067 10.3837 27.4259 13.9998 27.4259C17.616 27.4259 18.0795 27.4259 19.4937 27.343C20.6001 27.3212 21.6947 27.1114 22.7308 26.7225C23.6158 26.3791 24.4197 25.855 25.091 25.1837C25.7623 24.5124 26.2864 23.7086 26.6298 22.8235C27.0192 21.787 27.228 20.6941 27.2502 19.585C27.3139 18.1604 27.3332 17.7088 27.3332 14.0911C27.3302 10.475 27.3302 10.0159 27.2473 8.59875ZM13.9895 20.8851C10.2074 20.8851 7.14362 17.8213 7.14362 14.0393C7.14362 10.2573 10.2074 7.19345 13.9895 7.19345C15.8051 7.19345 17.5464 7.9147 18.8302 9.19855C20.1141 10.4824 20.8353 12.2237 20.8353 14.0393C20.8353 15.8549 20.1141 17.5962 18.8302 18.88C17.5464 20.1639 15.8051 20.8851 13.9895 20.8851ZM21.1078 8.53655C20.8981 8.53675 20.6904 8.49559 20.4967 8.41544C20.3029 8.33528 20.1269 8.21771 19.9786 8.06943C19.8303 7.92116 19.7127 7.74511 19.6326 7.55134C19.5524 7.35758 19.5113 7.14991 19.5115 6.94023C19.5115 6.73069 19.5527 6.52321 19.6329 6.32962C19.7131 6.13604 19.8306 5.96014 19.9788 5.81197C20.127 5.66381 20.3029 5.54628 20.4964 5.46609C20.69 5.38591 20.8975 5.34464 21.1071 5.34464C21.3166 5.34464 21.5241 5.38591 21.7177 5.46609C21.9112 5.54628 22.0871 5.66381 22.2353 5.81197C22.3835 5.96014 22.501 6.13604 22.5812 6.32962C22.6614 6.52321 22.7026 6.73069 22.7026 6.94023C22.7026 7.8228 21.9889 8.53655 21.1078 8.53655Z" fill="#8E9091"/>
<path d="M13.9899 18.4876C16.4458 18.4876 18.4368 16.4966 18.4368 14.0407C18.4368 11.5847 16.4458 9.59375 13.9899 9.59375C11.5339 9.59375 9.54297 11.5847 9.54297 14.0407C9.54297 16.4966 11.5339 18.4876 13.9899 18.4876Z" fill="#8E9091"/>
</svg>
