<svg width="28" height="27" viewBox="0 0 28 27" fill="none" xmlns="http://www.w3.org/2000/svg">
<g id="Group 48095609">
<path id="Vector" d="M23.3877 22.9362H19.4365V16.8846C19.4365 15.4415 19.4102 13.5838 17.3815 13.5838C15.3236 13.5838 15.0088 15.1561 15.0088 16.7795V22.9358H11.0576V10.4912H14.8507V12.1919H14.9038C15.2834 11.5571 15.832 11.0349 16.491 10.6809C17.15 10.3269 17.8949 10.1544 18.6463 10.1817C22.6509 10.1817 23.3894 12.7578 23.3894 16.1093L23.3877 22.9362ZM6.59941 8.79012C6.14592 8.79021 5.70256 8.65877 5.32546 8.41241C4.94833 8.16607 4.65441 7.8159 4.48078 7.40617C4.30718 6.99643 4.26167 6.54555 4.35006 6.11055C4.43845 5.67554 4.65676 5.27592 4.97739 4.96225C5.29799 4.64857 5.7065 4.43494 6.15127 4.34833C6.59604 4.26171 7.05706 4.30605 7.47606 4.47569C7.89507 4.64536 8.25322 4.93271 8.50523 5.30145C8.75726 5.67017 8.89182 6.10372 8.8919 6.54723C8.89195 6.84173 8.83269 7.13333 8.71751 7.40542C8.60232 7.67752 8.4335 7.92476 8.22062 8.13302C8.00775 8.3413 7.755 8.50653 7.47681 8.61927C7.19864 8.73201 6.90052 8.79006 6.59941 8.79012ZM8.57497 22.9362H4.61972V10.4912H8.57497V22.9362ZM25.3576 0.716621H2.63426C2.11851 0.710928 1.62152 0.905726 1.25255 1.25821C0.883573 1.61069 0.672798 2.09202 0.666504 2.59642V24.9122C0.672583 25.4169 0.883233 25.8984 1.25219 26.2514C1.62116 26.6042 2.11826 26.7994 2.63426 26.7939H25.3576C25.8746 26.8003 26.3731 26.6057 26.7435 26.2529C27.1138 25.9001 27.3259 25.4178 27.3332 24.9122V2.59482C27.3257 2.08941 27.1134 1.60753 26.7432 1.25506C26.3727 0.902585 25.8744 0.708344 25.3576 0.71501" fill="#8E9091"/>
</g>
</svg>
