<svg width="32" height="33" viewBox="0 0 32 33" fill="none" xmlns="http://www.w3.org/2000/svg">
<g id="App - Twiter">
<path id="Vector" d="M31.6082 6.96623C30.4948 7.45957 29.2988 7.7929 28.0415 7.94357C29.3388 7.16729 30.3094 5.94552 30.7722 4.50623C29.5533 5.23022 28.2193 5.73983 26.8282 6.0129C25.8927 5.01405 24.6536 4.352 23.3033 4.12953C21.9529 3.90706 20.567 4.13662 19.3605 4.78257C18.154 5.42852 17.1945 6.45472 16.631 7.70184C16.0675 8.94896 15.9315 10.3472 16.2442 11.6796C13.7744 11.5556 11.3583 10.9136 9.15273 9.79544C6.94712 8.67725 5.00128 7.10778 3.4415 5.1889C2.90816 6.1089 2.6015 7.17557 2.6015 8.31157C2.6009 9.33423 2.85274 10.3412 3.33467 11.2432C3.8166 12.1452 4.51371 12.9143 5.36416 13.4822C4.37786 13.4508 3.41333 13.1843 2.55083 12.7049V12.7849C2.55073 14.2192 3.04687 15.6094 3.95507 16.7196C4.86327 17.8297 6.12759 18.5915 7.5335 18.8756C6.61854 19.1232 5.65928 19.1597 4.72816 18.9822C5.12483 20.2164 5.89749 21.2956 6.93799 22.0688C7.97848 22.842 9.23472 23.2705 10.5308 23.2942C8.33061 25.0214 5.61335 25.9584 2.81616 25.9542C2.32067 25.9544 1.8256 25.9254 1.3335 25.8676C4.1728 27.6931 7.47795 28.662 10.8535 28.6582C22.2802 28.6582 28.5268 19.1942 28.5268 10.9862C28.5268 10.7196 28.5202 10.4502 28.5082 10.1836C29.7232 9.30486 30.772 8.21676 31.6055 6.97023L31.6082 6.96623Z" fill="#8E9091"/>
</g>
</svg>
