<svg width="32" height="33" viewBox="0 0 32 33" fill="none" xmlns="http://www.w3.org/2000/svg">
<g id="youtube-fill">
<path id="Vector" fill-rule="evenodd" clip-rule="evenodd" d="M16 3.37891C17.368 3.37891 18.7712 3.41374 20.1312 3.47074L21.7376 3.54674L23.2752 3.63699L24.7152 3.73357L26.0304 3.83491C27.4577 3.94301 28.8007 4.54574 29.8232 5.53705C30.8458 6.52837 31.4823 7.84476 31.6208 9.25466L31.6848 9.92757L31.8048 11.3684C31.9168 12.8615 32 14.4892 32 16.0456C32 17.602 31.9168 19.2297 31.8048 20.7227L31.6848 22.1636C31.664 22.3947 31.6432 22.618 31.6208 22.8365C31.4822 24.2466 30.8455 25.5632 29.8226 26.5546C28.7998 27.5459 27.4564 28.1485 26.0288 28.2562L24.7168 28.356L23.2768 28.4542L21.7376 28.5444L20.1312 28.6204C18.7549 28.6796 17.3776 28.7102 16 28.7122C14.6224 28.7102 13.2451 28.6796 11.8688 28.6204L10.2624 28.5444L8.7248 28.4542L7.2848 28.356L5.9696 28.2562C4.54232 28.1481 3.19928 27.5454 2.17676 26.5541C1.15423 25.5628 0.517719 24.2464 0.3792 22.8365L0.3152 22.1636L0.1952 20.7227C0.0728601 19.1665 0.00775043 17.6065 0 16.0456C0 14.4892 0.0832 12.8615 0.1952 11.3684L0.3152 9.92757C0.336 9.6964 0.3568 9.47316 0.3792 9.25466C0.517665 7.84501 1.15395 6.52881 2.17615 5.53753C3.19835 4.54625 4.54101 3.94337 5.968 3.83491L7.2816 3.73357L8.7216 3.63699L10.2608 3.54674L11.8672 3.47074C13.244 3.41158 14.6219 3.38096 16 3.37891ZM12.8 12.206V19.8852C12.8 20.6167 13.6 21.0727 14.24 20.7085L20.96 16.8689C21.1062 16.7856 21.2277 16.6656 21.3121 16.5211C21.3966 16.3766 21.4411 16.2125 21.4411 16.0456C21.4411 15.8786 21.3966 15.7146 21.3121 15.57C21.2277 15.4255 21.1062 15.3055 20.96 15.2222L14.24 11.3842C14.094 11.3008 13.9284 11.2569 13.7598 11.257C13.5913 11.257 13.4257 11.3009 13.2797 11.3844C13.1338 11.4678 13.0126 11.5879 12.9284 11.7324C12.8442 11.8769 12.7999 12.0408 12.8 12.2076V12.206Z" fill="#8E9091"/>
</g>
</svg>
